<svg width="36" height="36" viewBox="0 0 36 36" fill="none" xmlns="http://www.w3.org/2000/svg">
<path d="M35.661 12.6C35.3571 9.4241 34.0636 6.42392 31.9634 4.023C29.562 1.93107 26.5678 0.641091 23.3985 0.333C21.8298 0.121079 20.2491 0.00985133 18.6662 0L17.3257 0C15.7458 0.00991519 14.1681 0.121143 12.6024 0.333C9.42996 0.642041 6.43434 1.93894 4.03756 4.041C1.94124 6.43737 0.648126 9.43056 0.339908 12.6C0.0839381 14.3881 -0.0273827 16.194 0.00702972 18C-0.029855 19.8058 0.0784546 21.6116 0.330912 23.4C0.639612 26.5747 1.93243 29.5735 4.02856 31.977C6.43236 34.0706 9.42995 35.3607 12.6024 35.667C14.1682 35.8785 15.7458 35.9897 17.3257 36H18.6572C20.2431 35.9905 21.8268 35.8793 23.3985 35.667C26.5741 35.3598 29.5731 34.0628 31.9724 31.959C34.0654 29.5615 35.3553 26.5684 35.661 23.4C35.917 21.6119 36.0283 19.806 35.9939 18C36.0278 16.194 35.9165 14.3882 35.661 12.6Z" fill="#E5E5E5"/>
<path d="M31.9747 31.959C33.1002 30.7304 33.98 29.2976 34.5667 27.738L22.2547 8.78401C21.7333 7.91453 20.9873 7.20157 20.0951 6.72008C19.2029 6.2386 18.1974 6.00637 17.1844 6.04781C16.1715 6.08925 15.1883 6.40283 14.3385 6.95558C13.4886 7.50833 12.8033 8.27984 12.3547 9.18901L1.68066 28.332C2.26217 29.6541 3.05899 30.8707 4.03866 31.932C6.43515 34.0402 9.43099 35.3462 12.6067 35.667C14.173 35.8785 15.7512 35.9898 17.3317 36H18.6637C20.2502 35.9905 21.8344 35.8793 23.4067 35.667C26.5803 35.358 29.577 34.0611 31.9747 31.959Z" fill="#E1312F"/>
<path d="M14.6145 20.619H14.6055C14.2376 20.619 13.9395 20.9172 13.9395 21.285V22.716C13.9395 23.0838 14.2376 23.382 14.6055 23.382H14.6145C14.9823 23.382 15.2805 23.0838 15.2805 22.716V21.285C15.2805 20.9172 14.9823 20.619 14.6145 20.619Z" fill="#161616"/>
<path d="M23.173 20.619H23.164C22.7962 20.619 22.498 20.9172 22.498 21.285V22.716C22.498 23.0838 22.7962 23.382 23.164 23.382H23.173C23.5409 23.382 23.839 23.0838 23.839 22.716V21.285C23.839 20.9172 23.5409 20.619 23.173 20.619Z" fill="#161616"/>
<path d="M16.8276 27.342C17.4439 27.6649 18.1299 27.8317 18.8256 27.828C19.4897 27.8447 20.1449 27.6731 20.7156 27.333C20.7912 27.2883 20.8583 27.2304 20.9136 27.162C20.9638 27.0882 21.0004 27.0058 21.0216 26.919C21.0398 26.833 21.0398 26.7441 21.0216 26.658C21.0107 26.5712 20.9799 26.488 20.9316 26.415C20.8426 26.2615 20.6973 26.1485 20.5266 26.1C20.4416 26.0776 20.3528 26.0733 20.266 26.0872C20.1792 26.1012 20.0963 26.1331 20.0226 26.181C19.6573 26.3853 19.244 26.4879 18.8256 26.478C18.3497 26.4769 17.8808 26.3628 17.4576 26.145C17.2932 26.0775 17.1089 26.0775 16.9446 26.145C16.86 26.1693 16.7813 26.2106 16.7133 26.2663C16.6452 26.322 16.5891 26.391 16.5486 26.469C16.4664 26.6274 16.4502 26.8118 16.5036 26.982C16.561 27.1394 16.6771 27.2684 16.8276 27.342Z" fill="#161616"/>
</svg>
