<svg width="157" height="23" viewBox="0 0 157 23" fill="none" xmlns="http://www.w3.org/2000/svg">
<path d="M5.992 22L0.812 1.364H3.724L7.812 17.996L12.516 1.364H15.26L19.936 17.996L24.052 1.364H26.936L21.756 22H18.788L13.888 5.368L8.96 22H5.992ZM34.5008 22.168C32.9141 22.168 31.6448 21.9347 30.6928 21.468C29.7595 21.0013 29.0875 20.2173 28.6768 19.116C28.2848 17.996 28.0888 16.456 28.0888 14.496C28.0888 12.4987 28.2848 10.9493 28.6768 9.848C29.0875 8.728 29.7595 7.944 30.6928 7.496C31.6261 7.048 32.8861 6.824 34.4728 6.824C35.8541 6.824 36.9648 6.97333 37.8048 7.272C38.6635 7.552 39.2888 8.06533 39.6808 8.812C40.0915 9.54 40.2968 10.5573 40.2968 11.864C40.2968 12.7787 40.1101 13.5067 39.7368 14.048C39.3821 14.5893 38.8688 14.9813 38.1968 15.224C37.5435 15.4667 36.7595 15.588 35.8448 15.588H30.8888C30.9075 16.6707 31.0288 17.5387 31.2528 18.192C31.4955 18.8267 31.9155 19.2933 32.5128 19.592C33.1288 19.872 34.0248 20.012 35.2008 20.012H39.8768V21.692C39.0741 21.804 38.2528 21.9067 37.4128 22C36.5728 22.112 35.6021 22.168 34.5008 22.168ZM30.8608 13.824H35.5928C36.3395 13.824 36.8901 13.684 37.2448 13.404C37.5995 13.124 37.7768 12.6107 37.7768 11.864C37.7768 11.1173 37.6648 10.5293 37.4408 10.1C37.2355 9.67067 36.8901 9.36267 36.4048 9.176C35.9195 8.98933 35.2755 8.896 34.4728 8.896C33.5581 8.896 32.8301 9.036 32.2888 9.316C31.7661 9.596 31.3928 10.0907 31.1688 10.8C30.9635 11.5093 30.8608 12.5173 30.8608 13.824ZM47.8859 22.028C46.9712 22.028 46.1966 21.8693 45.5619 21.552C44.9459 21.2347 44.4792 20.7307 44.1619 20.04C43.8632 19.3307 43.7139 18.3787 43.7139 17.184V0.636H46.5139V16.82C46.5139 17.604 46.5886 18.2107 46.7379 18.64C46.9059 19.0507 47.1299 19.34 47.4099 19.508C47.7086 19.676 48.0539 19.788 48.4459 19.844L49.8459 20.012V22.028H47.8859ZM56.5604 22C55.6831 22 54.9084 21.8693 54.2364 21.608C53.5831 21.328 53.0791 20.8707 52.7244 20.236C52.3698 19.5827 52.1924 18.7147 52.1924 17.632V1.364H55.0204V17.212C55.0204 17.8093 55.1231 18.276 55.3284 18.612C55.5338 18.9293 55.8044 19.144 56.1404 19.256C56.4764 19.368 56.8404 19.424 57.2324 19.424H64.3724V22H56.5604ZM67.4301 4.5C67.0941 4.5 66.9261 4.34133 66.9261 4.024V1.672C66.9261 1.336 67.0941 1.168 67.4301 1.168H69.5021C69.6515 1.168 69.7635 1.21467 69.8381 1.308C69.9128 1.40133 69.9501 1.52267 69.9501 1.672V4.024C69.9501 4.34133 69.8008 4.5 69.5021 4.5H67.4301ZM67.0381 22V7.02H69.8381V22H67.0381ZM74.6607 22V9.316H72.4207V7.496L74.6607 7.02V5.536C74.6607 4.416 74.8007 3.48267 75.0807 2.736C75.3607 1.97067 75.8274 1.40133 76.4807 1.028C77.134 0.654666 78.03 0.467999 79.1687 0.467999C79.822 0.467999 80.382 0.505332 80.8487 0.579999C81.334 0.654666 81.754 0.719999 82.1087 0.776V2.792H79.6727C79.0754 2.792 78.618 2.88533 78.3007 3.072C77.9834 3.25867 77.7594 3.548 77.6287 3.94C77.5167 4.332 77.4607 4.81733 77.4607 5.396V7.02H81.8567V9.316H77.4607V22H74.6607ZM90.1727 22.168C88.586 22.168 87.3167 21.9347 86.3647 21.468C85.4314 21.0013 84.7594 20.2173 84.3487 19.116C83.9567 17.996 83.7607 16.456 83.7607 14.496C83.7607 12.4987 83.9567 10.9493 84.3487 9.848C84.7594 8.728 85.4314 7.944 86.3647 7.496C87.298 7.048 88.558 6.824 90.1447 6.824C91.526 6.824 92.6367 6.97333 93.4767 7.272C94.3354 7.552 94.9607 8.06533 95.3527 8.812C95.7634 9.54 95.9687 10.5573 95.9687 11.864C95.9687 12.7787 95.782 13.5067 95.4087 14.048C95.054 14.5893 94.5407 14.9813 93.8687 15.224C93.2154 15.4667 92.4314 15.588 91.5167 15.588H86.5607C86.5794 16.6707 86.7007 17.5387 86.9247 18.192C87.1674 18.8267 87.5874 19.2933 88.1847 19.592C88.8007 19.872 89.6967 20.012 90.8727 20.012H95.5487V21.692C94.746 21.804 93.9247 21.9067 93.0847 22C92.2447 22.112 91.274 22.168 90.1727 22.168ZM86.5327 13.824H91.2647C92.0114 13.824 92.562 13.684 92.9167 13.404C93.2714 13.124 93.4487 12.6107 93.4487 11.864C93.4487 11.1173 93.3367 10.5293 93.1127 10.1C92.9074 9.67067 92.562 9.36267 92.0767 9.176C91.5914 8.98933 90.9474 8.896 90.1447 8.896C89.23 8.896 88.502 9.036 87.9607 9.316C87.438 9.596 87.0647 10.0907 86.8407 10.8C86.6354 11.5093 86.5327 12.5173 86.5327 13.824ZM111.665 22C110.601 22 109.695 21.8413 108.949 21.524C108.221 21.188 107.67 20.6653 107.297 19.956C106.942 19.228 106.765 18.276 106.765 17.1V1.28H110.909V16.428C110.909 16.876 110.983 17.24 111.133 17.52C111.301 17.8 111.525 17.996 111.805 18.108C112.085 18.2013 112.402 18.248 112.757 18.248H119.309V22H111.665ZM124.745 22.168C123.606 22.168 122.682 21.832 121.973 21.16C121.264 20.488 120.909 19.5547 120.909 18.36V17.016C120.909 15.8773 121.31 14.944 122.113 14.216C122.916 13.4693 124.166 13.096 125.865 13.096H129.701V12.06C129.701 11.5933 129.617 11.2107 129.449 10.912C129.281 10.5947 128.964 10.3707 128.497 10.24C128.049 10.0907 127.358 10.016 126.425 10.016H121.917V7.608C122.645 7.384 123.485 7.188 124.437 7.02C125.408 6.852 126.574 6.768 127.937 6.768C129.188 6.768 130.252 6.91733 131.129 7.216C132.025 7.51467 132.697 8.028 133.145 8.756C133.612 9.484 133.845 10.492 133.845 11.78V22H130.569L129.897 20.404C129.766 20.5533 129.542 20.7213 129.225 20.908C128.908 21.0947 128.516 21.2907 128.049 21.496C127.601 21.6827 127.088 21.8413 126.509 21.972C125.949 22.1027 125.361 22.168 124.745 22.168ZM126.845 19.284C127.032 19.284 127.237 19.2653 127.461 19.228C127.704 19.172 127.946 19.116 128.189 19.06C128.45 18.9853 128.684 18.92 128.889 18.864C129.113 18.7893 129.29 18.724 129.421 18.668C129.57 18.612 129.664 18.5747 129.701 18.556V15.056L127.181 15.224C126.453 15.28 125.912 15.4667 125.557 15.784C125.221 16.1013 125.053 16.5307 125.053 17.072V17.688C125.053 18.0613 125.128 18.3693 125.277 18.612C125.445 18.8547 125.66 19.032 125.921 19.144C126.201 19.2373 126.509 19.284 126.845 19.284ZM145.46 22.168C144.806 22.168 144.218 22.0933 143.696 21.944C143.173 21.7947 142.697 21.5987 142.268 21.356C141.857 21.1133 141.465 20.852 141.092 20.572L140.42 22H136.948V0.636H141.092V8C141.689 7.68267 142.361 7.39333 143.108 7.132C143.854 6.87067 144.573 6.74 145.264 6.74C146.552 6.74 147.578 7.01067 148.344 7.552C149.128 8.09333 149.697 8.94267 150.052 10.1C150.406 11.2387 150.584 12.7507 150.584 14.636C150.584 16.316 150.397 17.716 150.024 18.836C149.669 19.956 149.109 20.796 148.344 21.356C147.597 21.8973 146.636 22.168 145.46 22.168ZM143.92 18.78C144.405 18.78 144.834 18.6587 145.208 18.416C145.6 18.1547 145.898 17.7067 146.104 17.072C146.328 16.4373 146.44 15.56 146.44 14.44C146.44 13.1333 146.318 12.1813 146.076 11.584C145.852 10.968 145.544 10.5667 145.152 10.38C144.778 10.1747 144.368 10.072 143.92 10.072C143.36 10.072 142.837 10.1653 142.352 10.352C141.885 10.52 141.465 10.7067 141.092 10.912V18.052C141.446 18.2387 141.848 18.4067 142.296 18.556C142.762 18.7053 143.304 18.78 143.92 18.78ZM153.802 22.028C153.429 22.028 153.242 21.8413 153.242 21.468V18.612C153.242 18.22 153.429 18.024 153.802 18.024H156.21C156.621 18.024 156.826 18.22 156.826 18.612V21.468C156.826 21.692 156.761 21.8413 156.63 21.916C156.518 21.9907 156.378 22.028 156.21 22.028H153.802Z" fill="#161616"/>
</svg>
